<svg width="430" height="78" viewBox="0 0 430 78" fill="none" xmlns="http://www.w3.org/2000/svg">
<g clip-path="url(#clip0_1229_24762)">
<path d="M76.9485 0.5044V22.6911L0.879883 22.2561L19.9481 11.8013L13.4251 0.504395L76.9485 0.5044Z" fill="#FF1B1C"/>
<path d="M0.757812 22.3857L19.7386 11.5083L57.5977 77.2341L38.7634 66.3017L32.3421 77.4998L0.757812 22.3857Z" fill="#FF1B1C"/>
<path d="M57.7489 77.3137L38.7974 66.3028L76.8363 0.5V22.7986H89.5159L57.7489 77.3137Z" fill="#FF1B1C"/>
<path d="M76.9488 22.6911H63.7427L76.9488 0.504395V22.6911Z" fill="#FF9898"/>
<path d="M38.7969 66.3032L45.0493 55.46L57.5977 77.2342L38.7969 66.3032Z" fill="#FF9898"/>
<path d="M19.777 11.4307L26.117 22.5801L0.757812 22.3615L19.777 11.4307Z" fill="#FF9898"/>
<path d="M135.55 66.0756L113.516 16.238H124.841L143.716 61.2228H140.173L158.971 16.238H170.142L148.339 66.0756H135.55Z" fill="black"/>
<path d="M204.653 53.3659H214.361C213.95 55.9849 212.845 58.3214 211.048 60.3755C209.301 62.4296 206.913 64.0472 203.883 65.2283C200.853 66.4094 197.155 67 192.789 67C187.91 67 183.595 66.2297 179.846 64.6891C176.097 63.0972 173.169 60.812 171.063 57.8336C168.957 54.8551 167.904 51.2604 167.904 47.0495C167.904 42.8386 168.932 39.2439 170.986 36.2655C173.041 33.2357 175.891 30.9248 179.538 29.3329C183.236 27.7409 187.55 26.945 192.481 26.945C197.514 26.945 201.7 27.7409 205.039 29.3329C208.377 30.9248 210.842 33.3384 212.435 36.5736C214.078 39.7574 214.771 43.84 214.515 48.8212H177.997C178.254 50.7726 178.973 52.5442 180.154 54.1362C181.387 55.7281 183.03 56.9862 185.085 57.9106C187.191 58.8349 189.682 59.2971 192.558 59.2971C195.742 59.2971 198.387 58.7579 200.493 57.6795C202.65 56.5497 204.037 55.1119 204.653 53.3659ZM192.019 34.5708C188.321 34.5708 185.316 35.3925 183.005 37.0358C180.693 38.6277 179.204 40.6048 178.536 42.967H204.576C204.319 40.3994 203.087 38.3709 200.878 36.8817C198.721 35.3411 195.768 34.5708 192.019 34.5708Z" fill="black"/>
<path d="M220.426 27.7923H230.442V66.0756H220.426V27.7923ZM245.157 36.0344C242.281 36.0344 239.79 36.5993 237.684 37.729C235.578 38.8074 233.883 40.1426 232.599 41.7345C231.315 43.3265 230.416 44.867 229.903 46.3563L229.825 42.1197C229.877 41.5034 230.082 40.6048 230.442 39.4237C230.801 38.1912 231.341 36.8817 232.06 35.4952C232.779 34.0573 233.729 32.6965 234.91 31.4127C236.092 30.0775 237.53 28.9991 239.225 28.1774C240.919 27.3558 242.897 26.945 245.157 26.945V36.0344Z" fill="black"/>
<path d="M248.267 53.3659H257.512C258.077 55.1119 259.232 56.5497 260.979 57.6795C262.776 58.7579 265.113 59.2971 267.989 59.2971C269.941 59.2971 271.456 59.1174 272.535 58.7579C273.613 58.3984 274.358 57.8849 274.769 57.2173C275.18 56.4984 275.385 55.7024 275.385 54.8294C275.385 53.751 275.051 52.9294 274.384 52.3645C273.716 51.7483 272.689 51.2604 271.302 50.901C269.915 50.5415 268.143 50.2077 265.986 49.8996C263.829 49.5401 261.749 49.1036 259.746 48.5901C257.743 48.0766 255.971 47.409 254.43 46.5873C252.889 45.7143 251.657 44.6359 250.732 43.3521C249.859 42.017 249.422 40.3994 249.422 38.4993C249.422 36.6506 249.859 35.0073 250.732 33.5695C251.657 32.1316 252.915 30.9248 254.507 29.9491C256.151 28.9734 258.051 28.2288 260.208 27.7153C262.417 27.2017 264.779 26.945 267.296 26.945C271.097 26.945 274.255 27.5099 276.772 28.6396C279.289 29.718 281.163 31.2586 282.396 33.2613C283.68 35.2127 284.322 37.4723 284.322 40.0399H275.462C275.051 38.1398 274.23 36.779 272.997 35.9574C271.764 35.0844 269.864 34.6479 267.296 34.6479C264.779 34.6479 262.879 35.033 261.595 35.8033C260.311 36.5736 259.669 37.6263 259.669 38.9615C259.669 40.0399 260.054 40.8872 260.824 41.5034C261.646 42.0683 262.828 42.5305 264.368 42.89C265.961 43.2494 267.938 43.6346 270.301 44.0454C272.304 44.4562 274.204 44.9184 276.002 45.4319C277.851 45.9454 279.494 46.613 280.932 47.4347C282.37 48.2049 283.5 49.2577 284.322 50.5928C285.195 51.8767 285.632 53.5199 285.632 55.5227C285.632 57.9876 284.913 60.0674 283.475 61.762C282.088 63.4567 280.085 64.7662 277.465 65.6905C274.846 66.5635 271.713 67 268.066 67C264.831 67 262.031 66.6662 259.669 65.9986C257.358 65.2797 255.432 64.381 253.891 63.3026C252.35 62.1729 251.143 60.9917 250.27 59.7593C249.448 58.4755 248.883 57.2687 248.575 56.1389C248.267 55.0092 248.164 54.0848 248.267 53.3659Z" fill="black"/>
<path d="M314.326 67C309.498 67 305.235 66.2297 301.537 64.6891C297.891 63.1486 295.04 60.9147 292.986 57.9876C290.931 55.0092 289.904 51.3631 289.904 47.0495C289.904 42.7359 290.931 39.0899 292.986 36.1114C295.04 33.0816 297.891 30.7964 301.537 29.2558C305.235 27.7153 309.498 26.945 314.326 26.945C319.154 26.945 323.366 27.7153 326.961 29.2558C330.608 30.7964 333.458 33.0816 335.513 36.1114C337.567 39.0899 338.594 42.7359 338.594 47.0495C338.594 51.3631 337.567 55.0092 335.513 57.9876C333.458 60.9147 330.608 63.1486 326.961 64.6891C323.366 66.2297 319.154 67 314.326 67ZM314.326 59.2971C316.997 59.2971 319.385 58.8349 321.491 57.9106C323.648 56.9349 325.343 55.5484 326.576 53.751C327.809 51.9023 328.425 49.6685 328.425 47.0495C328.425 44.4305 327.809 42.1967 326.576 40.348C325.343 38.448 323.674 37.0101 321.568 36.0344C319.462 35.0587 317.048 34.5708 314.326 34.5708C311.655 34.5708 309.242 35.0587 307.084 36.0344C304.927 37.0101 303.207 38.4223 301.923 40.271C300.69 42.1197 300.074 44.3792 300.074 47.0495C300.074 49.6685 300.69 51.9023 301.923 53.751C303.155 55.5484 304.85 56.9349 307.007 57.9106C309.164 58.8349 311.604 59.2971 314.326 59.2971Z" fill="black"/>
<path d="M345.228 12.3865H355.243V66.0756H345.228V12.3865Z" fill="black"/>
<path d="M375.311 11V19.7813H363.678V11H375.311ZM364.448 27.7923H374.464V66.0756H364.448V27.7923Z" fill="black"/>
<path d="M401.55 66.923C397.698 66.923 394.205 66.1013 391.072 64.458C387.991 62.7634 385.551 60.4269 383.753 57.4484C381.956 54.4186 381.057 50.9266 381.057 46.9725C381.057 42.9156 381.93 39.398 383.676 36.4195C385.474 33.4411 387.914 31.1302 390.995 29.4869C394.077 27.7923 397.595 26.945 401.55 26.945C404.991 26.945 407.919 27.4585 410.333 28.4856C412.747 29.5126 414.698 30.9505 416.188 32.7992C417.677 34.5965 418.756 36.702 419.424 39.1155C420.143 41.5291 420.502 44.1481 420.502 46.9725C420.502 49.232 420.143 51.5429 419.424 53.9051C418.705 56.216 417.6 58.3728 416.111 60.3755C414.621 62.3269 412.67 63.9188 410.256 65.1513C407.842 66.3324 404.94 66.923 401.55 66.923ZM404.786 59.2201C407.816 59.2201 410.435 58.7066 412.644 57.6795C414.853 56.6524 416.547 55.2146 417.729 53.3659C418.91 51.5172 419.501 49.3861 419.501 46.9725C419.501 44.3535 418.884 42.1453 417.652 40.348C416.47 38.4993 414.775 37.0871 412.567 36.1114C410.41 35.1357 407.816 34.6479 404.786 34.6479C400.523 34.6479 397.21 35.7776 394.847 38.0371C392.485 40.2966 391.303 43.2751 391.303 46.9725C391.303 49.4374 391.868 51.5942 392.998 53.4429C394.128 55.2403 395.695 56.6524 397.698 57.6795C399.752 58.7066 402.115 59.2201 404.786 59.2201ZM419.501 12.3865H429.516V66.0756H420.194C420.04 64.8945 419.886 63.3796 419.732 61.5309C419.578 59.6309 419.501 57.8592 419.501 56.216V12.3865Z" fill="black"/>
</g>
<defs>
<clipPath id="clip0_1229_24762">
<rect width="428.758" height="77" fill="white" transform="translate(0.757812 0.5)"/>
</clipPath>
</defs>
</svg>
