<svg width="218" height="202" viewBox="0 0 218 202" fill="none" xmlns="http://www.w3.org/2000/svg">
<path d="M174.003 1.00002L174.003 52L0.000488369 51L43.6177 26.9679L28.6969 1L174.003 1.00002Z" fill="#CE0101"/>
<path d="M0.000294878 51.0553L43.4118 26.1774L130 176.5L86.924 151.497L72.2377 177.108L0.000294878 51.0553Z" fill="#CE0101"/>
<path d="M130.346 176.683L87.0015 151.5L174.002 1.00028L174.002 52L203.001 52L130.346 176.683Z" fill="#CE0101"/>
<path d="M174.001 52H144.501L174.001 1V52Z" fill="url(#paint0_linear_162_1818)" fill-opacity="0.3"/>
<path d="M87.0012 151.5L101.301 126.7L130.001 176.5L87.0012 151.5Z" fill="url(#paint1_linear_162_1818)" fill-opacity="0.3"/>
<path d="M43.5007 26L58.001 51.5L0.00135391 51.0002L43.5007 26Z" fill="url(#paint2_linear_162_1818)" fill-opacity="0.3"/>
<path d="M168.667 170.4V159.33H174.082C174.782 159.33 175.422 159.475 176.002 159.765C176.592 160.055 177.057 160.475 177.397 161.025C177.747 161.565 177.922 162.225 177.922 163.005C177.922 163.785 177.742 164.45 177.382 165C177.022 165.55 176.542 165.97 175.942 166.26C175.342 166.54 174.677 166.68 173.947 166.68H170.242V164.595H173.347C173.767 164.595 174.127 164.46 174.427 164.19C174.737 163.92 174.892 163.52 174.892 162.99C174.892 162.44 174.737 162.05 174.427 161.82C174.127 161.58 173.772 161.46 173.362 161.46H171.547V170.4H168.667ZM175.732 165.285L178.252 170.4H175.102L172.747 165.285H175.732ZM173.002 177C171.342 177 169.787 176.69 168.337 176.07C166.887 175.45 165.612 174.59 164.512 173.49C163.412 172.39 162.552 171.115 161.932 169.665C161.312 168.215 161.002 166.66 161.002 165C161.002 163.34 161.312 161.785 161.932 160.335C162.552 158.885 163.412 157.61 164.512 156.51C165.612 155.41 166.887 154.55 168.337 153.93C169.787 153.31 171.342 153 173.002 153C174.662 153 176.217 153.31 177.667 153.93C179.117 154.55 180.392 155.41 181.492 156.51C182.592 157.61 183.452 158.885 184.072 160.335C184.692 161.785 185.002 163.34 185.002 165C185.002 166.66 184.692 168.215 184.072 169.665C183.452 171.115 182.592 172.39 181.492 173.49C180.392 174.59 179.117 175.45 177.667 176.07C176.217 176.69 174.662 177 173.002 177ZM173.002 173.835C174.642 173.835 176.127 173.44 177.457 172.65C178.797 171.85 179.862 170.785 180.652 169.455C181.442 168.115 181.837 166.63 181.837 165C181.837 163.37 181.437 161.89 180.637 160.56C179.847 159.22 178.782 158.155 177.442 157.365C176.112 156.565 174.632 156.165 173.002 156.165C171.382 156.165 169.902 156.565 168.562 157.365C167.222 158.155 166.157 159.22 165.367 160.56C164.577 161.89 164.182 163.37 164.182 165C164.182 166.63 164.577 168.115 165.367 169.455C166.157 170.785 167.222 171.85 168.562 172.65C169.902 173.44 171.382 173.835 173.002 173.835Z" fill="#CE0101"/>
<defs>
<linearGradient id="paint0_linear_162_1818" x1="149.501" y1="52" x2="186.001" y2="-0.499998" gradientUnits="userSpaceOnUse">
<stop/>
<stop offset="1" stop-opacity="0.46"/>
</linearGradient>
<linearGradient id="paint1_linear_162_1818" x1="102.501" y1="128.5" x2="113.501" y2="175" gradientUnits="userSpaceOnUse">
<stop/>
<stop offset="1" stop-opacity="0.46"/>
</linearGradient>
<linearGradient id="paint2_linear_162_1818" x1="55.001" y1="51" x2="3.50098" y2="42.5" gradientUnits="userSpaceOnUse">
<stop/>
<stop offset="1" stop-opacity="0.46"/>
</linearGradient>
</defs>
</svg>
