<svg width="204" height="200" viewBox="0 0 204 200" fill="none" xmlns="http://www.w3.org/2000/svg">
<g clip-path="url(#clip0_570_24788)">
<path d="M174.503 12.5V63.5L0.500488 62.5L44.1177 38.4679L29.1969 12.5L174.503 12.5Z" fill="#CE0101"/>
<path d="M0.500244 62.5551L43.9118 37.6772L130.5 188L87.424 162.997L72.7376 188.608L0.500244 62.5551Z" fill="#CE0101"/>
<path d="M130.846 188.183L87.5015 163L174.502 12.5005V63.5002H203.501L130.846 188.183Z" fill="#CE0101"/>
<path d="M174.501 63.5H145.001L174.501 12.5V63.5Z" fill="url(#paint0_linear_570_24788)" fill-opacity="0.3"/>
<path d="M87.5012 163L101.801 138.2L130.501 188L87.5012 163Z" fill="url(#paint1_linear_570_24788)" fill-opacity="0.3"/>
<path d="M44.0007 37.5L58.501 63L0.501343 62.5002L44.0007 37.5Z" fill="url(#paint2_linear_570_24788)" fill-opacity="0.3"/>
</g>
<defs>
<linearGradient id="paint0_linear_570_24788" x1="150.001" y1="63.5" x2="186.501" y2="11" gradientUnits="userSpaceOnUse">
<stop/>
<stop offset="1" stop-opacity="0.46"/>
</linearGradient>
<linearGradient id="paint1_linear_570_24788" x1="103.001" y1="140" x2="114.001" y2="186.5" gradientUnits="userSpaceOnUse">
<stop/>
<stop offset="1" stop-opacity="0.46"/>
</linearGradient>
<linearGradient id="paint2_linear_570_24788" x1="55.501" y1="62.5" x2="4.00097" y2="54" gradientUnits="userSpaceOnUse">
<stop/>
<stop offset="1" stop-opacity="0.46"/>
</linearGradient>
<clipPath id="clip0_570_24788">
<rect width="203" height="177" fill="white" transform="translate(0.5 11.5)"/>
</clipPath>
</defs>
</svg>
